<svg width="28" height="28" xmlns="http://www.w3.org/2000/svg">
    <g>
        <defs>
            <linearGradient id="myGradient" x1="0%" y1="0%" x2="100%" y2="100%">
                <stop offset="0%" stop-color="#ff6d5d"/>
                <stop offset="100%" stop-color="#FE274f"/>
            </linearGradient>
        </defs>
        <rect fill="url(#myGradient)" rx="6" height="28" width="28"/>
        <svg x="5" y="5" width="18" height="18" viewBox="0 0 1024 1024" xmlns="http://www.w3.org/2000/svg">
            <path d="M887.466667 115.2c-34.133333-34.133333-72.533333-46.933333-119.466667-46.933333H256c-46.933333 0-85.333333 17.066667-119.466667 46.933333S89.6 187.733333 89.6 234.666667v554.666666c0 46.933333 17.066667 85.333333 46.933333 119.466667s72.533333 46.933333 119.466667 46.933333h512c46.933333 0 85.333333-17.066667 119.466667-46.933333s46.933333-72.533333 46.933333-119.466667v-554.666666c0-46.933333-17.066667-85.333333-46.933333-119.466667z m-29.866667 674.133333c0 25.6-8.533333 46.933333-25.6 64s-38.4 25.6-64 25.6H256c-25.6 0-46.933333-8.533333-64-25.6s-25.6-38.4-25.6-64v-554.666666c0-25.6 8.533333-46.933333 25.6-64s38.4-25.6 64-25.6h512c25.6 0 46.933333 8.533333 64 25.6 17.066667 17.066667 25.6 38.4 25.6 64v554.666666z" fill="#ffffff" p-id="6034"></path><path d="M311.466667 311.466667C298.666667 298.666667 273.066667 298.666667 260.266667 311.466667s-12.8 38.4 0 51.2l145.066666 145.066666-145.066666 145.066667c-12.8 12.8-12.8 38.4 0 51.2s38.4 12.8 51.2 0l162.133333-162.133333c12.8-12.8 21.333333-21.333333 21.333333-34.133334s-8.533333-34.133333-21.333333-42.666666L311.466667 311.466667zM768 657.066667h-170.666667c-8.533333 0-38.4 8.533333-38.4 38.4s29.866667 38.4 38.4 38.4h170.666667c8.533333 0 38.4-8.533333 38.4-38.4s-29.866667-38.4-38.4-38.4z" fill="#ffffff"></path>
        </svg>
    </g>
</svg>