<svg width="28" height="28" xmlns="http://www.w3.org/2000/svg">
    <g>
        <defs>
            <linearGradient id="myGradient" x1="0%" y1="0%" x2="100%" y2="100%">
                <stop offset="0%" stop-color="#53cc99"/>
                <stop offset="100%" stop-color="#00aabb"/>
            </linearGradient>
        </defs>
        <rect fill="url(#myGradient)" rx="6" height="28" width="28"/>
        <svg viewBox="0 0 1024 1024" width="18" height="18" x="5" y="5">
            <path d="M512 69.817143c243.828571 0 442.182857 198.365714 442.182857 442.182857S755.828571 954.182857 512 954.182857 69.817143 755.828571 69.817143 512 268.194286 69.817143 512 69.817143M512 0C229.234286 0 0 229.234286 0 512s229.234286 512 512 512 512-229.222857 512-512S794.777143 0 512 0z"
                  fill="#ffffff"></path>
            <path d="M338.72 485.188571h85.005714a24.331429 24.331429 0 0 1 24.331429 24.331429v113.222857a24.331429 24.331429 0 0 1-24.331429 24.331429h-97.485714q-31.474286 0-50.068571-4.708572a88.971429 88.971429 0 0 1-33.714286-16.56q-42.96-33.085714-42.937143-114.057143 0-52.731429 20.434286-87.874285 15.142857-25.771429 41.291428-37.611429t67.862857-11.862857h94.617143a24.331429 24.331429 0 0 1 24.331429 24.32 24.331429 24.331429 0 0 1-24.331429 24.331429h-88.102857q-36.388571 0-52.742857 16-19.622857 18.8-19.622857 67.428571a182.148571 182.148571 0 0 0 5.108571 44.96c3.428571 13.36 8.091429 23.302857 14.114286 29.84 5.154286 6 12.331429 10.354286 21.462857 13.085714s20.354286 4.091429 33.714286 4.091429h28.411428a24.331429 24.331429 0 0 0 24.411429-24.354286V558.171429a24.331429 24.331429 0 0 0-24.331429-24.331429h-27.428571a24.331429 24.331429 0 0 1-24.331429-24.32 24.331429 24.331429 0 0 1 24.331429-24.331429zM496.765714 622.742857v-224a24.331429 24.331429 0 0 1 24.331429-24.32h9.394286a24.32 24.32 0 0 1 24.32 24.32v224a24.331429 24.331429 0 0 1-24.32 24.331429h-9.394286a24.331429 24.331429 0 0 1-24.331429-24.331429zM827.051429 510.331429a24.331429 24.331429 0 0 1-24.32 24.331428h-114.057143a24.32 24.32 0 0 0-24.32 24.32v63.76a24.331429 24.331429 0 0 1-24.331429 24.331429h-8.971428a24.331429 24.331429 0 0 1-24.32-24.331429V504.811429q0.377143-61.302857 11.428571-80.525715 13.897143-26.971429 40.262857-38.422857t74.182857-11.428571h70.114286a24.32 24.32 0 0 1 24.331429 24.297143 24.331429 24.331429 0 0 1-24.32 24.331428h-62.742858q-40.457143 0.811429-51.908571 6.537143-22.914286 9.417143-23.725714 41.702857v14.708572h138.331428a24.32 24.32 0 0 1 24.365715 24.32z"
                  fill="#ffffff"></path>
        </svg>
    </g>
</svg>