<svg width="28" height="28" xmlns="http://www.w3.org/2000/svg">
    <g>
        <rect fill="#1296ff" rx="6" height="28" width="28"/>
        <svg x="5" y="5" viewBox="0 0 1024 1024" width="18" height="18">
            <path d="M303.104 102.4h-163.84c-20.48 0-36.864 16.384-36.864 36.864v309.248c0 20.48 16.384 36.864 36.864 36.864h163.84c20.48 0 36.864-16.384 36.864-36.864v-309.248c-1.024-20.48-17.408-36.864-36.864-36.864z m290.816 0h-163.84c-20.48 0-36.864 16.384-36.864 36.864v309.248c0 20.48 16.384 36.864 36.864 36.864h163.84c20.48 0 36.864-16.384 36.864-36.864v-309.248c0-20.48-16.384-36.864-36.864-36.864z m291.84 0h-163.84c-20.48 0-36.864 16.384-36.864 36.864v309.248c0 20.48 16.384 36.864 36.864 36.864h163.84c20.48 0 36.864-16.384 36.864-36.864v-309.248c-1.024-20.48-17.408-36.864-36.864-36.864z m-582.656 437.248h-163.84c-20.48 0-36.864 16.384-36.864 36.864v309.248c0 20.48 16.384 36.864 36.864 36.864h163.84c20.48 0 36.864-16.384 36.864-36.864v-309.248c-1.024-20.48-17.408-36.864-36.864-36.864z m290.816 0h-163.84c-20.48 0-36.864 16.384-36.864 36.864v309.248c0 20.48 16.384 36.864 36.864 36.864h163.84c20.48 0 36.864-16.384 36.864-36.864v-309.248c0-20.48-16.384-36.864-36.864-36.864z m291.84 0h-163.84c-20.48 0-36.864 16.384-36.864 36.864v309.248c0 20.48 16.384 36.864 36.864 36.864h163.84c20.48 0 36.864-16.384 36.864-36.864v-309.248c-1.024-20.48-17.408-36.864-36.864-36.864z"
                  fill="#ffffff"></path>
        </svg>
    </g>
</svg>
