<svg width="28" height="28" xmlns="http://www.w3.org/2000/svg">
    <g>
        <defs>
            <linearGradient id="myGradient" x1="0%" y1="0%" x2="100%" y2="100%">
                <stop offset="0%" stop-color="#11bbdd"/>
                <stop offset="100%" stop-color="#1199dd"/>
            </linearGradient>
        </defs>
        <rect fill="url(#myGradient)" rx="6" height="28" width="28"/>
        <svg viewBox="0 0 1024 1024" width="19" height="19" x="4.5" y="4.5">
            <path d="M267.3 546.5h52.2V403.2H376v-41.4H210.5v41.4h56.8zM395.6 361.8h52.3v184.8h-52.3zM537.3 483.2h81.6v-40.4h-81.6v-40.7H630v-40.3H485.1v184.7h52.2zM706.8 483.2h81.6v-40.4h-81.6v-40.7h92.7v-40.3H654.6v184.7h52.2z"
                  fill="#ffffff"></path>
            <path d="M796 96H228c-72.8 0-132 59.2-132 132v568c0 72.8 59.2 132 132 132h568c72.8 0 132-59.2 132-132V228c0-72.8-59.2-132-132-132z m68 700c0 37.5-30.5 68-68 68H228c-37.5 0-68-30.5-68-68V228c0-37.5 30.5-68 68-68h568c37.5 0 68 30.5 68 68v568z"
                  fill="#ffffff"></path>
            <path d="M782.9 642.8c-172.2 77.6-369.9 78.1-542.5 1.4l-3.3-1.5c-16.2-7.2-35.1 0.1-42.2 16.2s0.1 35.1 16.2 42.2l3.3 1.5c94 41.8 194.8 62.7 295.7 62.7 102.1 0 204.2-21.4 299.1-64.2 16.1-7.3 23.3-26.2 16-42.3-7.3-16.1-26.2-23.2-42.3-16z"
                  fill="#ffffff"></path>
        </svg>
    </g>
</svg>